<svg width="90" height="89" viewBox="0 0 90 89" fill="none" xmlns="http://www.w3.org/2000/svg">
<path d="M3.94141 3.7832H85.7019V84.7881H3.94141V3.7832Z" fill="url(#paint0_radial_179_255)"/>
<path d="M3.94141 3.78375H85.7019V84.7886H3.94141V3.78375ZM0.22583 88.5724H89.4354V0H0.22583V88.5724ZM63.337 42.6945C65.2305 42.6945 65.9093 42.6945 66.088 42.6217C66.088 42.3488 66.1594 42.1669 66.1594 41.985C66.1594 39.9476 65.1948 36.1639 61.3363 36.1639C57.7637 36.1639 56.2453 39.3473 55.8701 42.7127H63.337V42.6945ZM55.7987 47.8789C55.8701 52.9906 58.246 56.4287 63.9086 56.4287C66.1058 56.4287 67.9994 56.1195 69.9643 55.2645C70.2323 55.1554 70.4109 55.1917 70.4109 55.5374V60.2671C70.4109 60.6491 70.3037 60.831 70.0358 61.0311C68.0708 62.0134 65.6057 62.4682 62.5689 62.4682C52.7619 62.4682 49.0821 55.0826 49.0821 46.8784C49.0821 37.9466 53.6194 30.6338 61.6043 30.6338C69.7142 30.6338 72.5366 37.5646 72.5366 43.2038C72.5366 45.0229 72.4295 46.4964 72.233 47.2241C72.1615 47.5333 72.0543 47.6424 71.7507 47.7152C71.0004 47.8244 68.8211 47.9881 65.5521 47.9881H55.8166V47.8789H55.7987ZM35.8632 44.0224C34.8271 39.8203 32.2905 30.6702 31.3616 26.2315H31.2902C30.5042 30.652 28.4678 38.1467 26.9494 44.0224H35.8632ZM25.431 50.1528L22.5014 61.4677C22.43 61.7769 22.3228 61.8861 21.9477 61.8861H16.4636C16.0885 61.8861 16.017 61.7769 16.0885 61.3221L26.6457 23.7394C26.8243 23.0663 26.9494 22.5206 27.0208 20.6287C27.0208 20.3558 27.128 20.2467 27.3245 20.2467H35.1308C35.3988 20.2467 35.5059 20.3194 35.5774 20.6287L47.3851 61.3949C47.4565 61.7042 47.3851 61.8861 47.0814 61.8861H40.9543C40.6506 61.8861 40.4719 61.7769 40.4005 61.5041L37.3459 50.1528H25.431Z" fill="#D8A1FF"/>
<defs>
<radialGradient id="paint0_radial_179_255" cx="0" cy="0" r="1" gradientUnits="userSpaceOnUse" gradientTransform="translate(30.8939 21.9444) scale(62.1407 61.2673)">
<stop stop-color="#442F55" stop-opacity="0.98"/>
<stop offset="1" stop-color="#12002C"/>
</radialGradient>
</defs>
</svg>
