<svg width="21" height="21" viewBox="0 0 21 21" fill="none" xmlns="http://www.w3.org/2000/svg">
<path d="M9.47395 1.18966C9.7738 0.269381 11.0757 0.269382 11.3756 1.18966L13.1267 6.56406C13.2608 6.97568 13.6445 7.25426 14.0775 7.25426H19.7382C20.7076 7.25426 21.1099 8.49529 20.3249 9.06405L15.7501 12.3787C15.3986 12.6333 15.2515 13.0856 15.386 13.4983L17.1345 18.8649C17.4346 19.7858 16.3813 20.5527 15.597 19.9845L11.0115 16.6621C10.6614 16.4085 10.1881 16.4085 9.83804 16.6621L5.25249 19.9845C4.46823 20.5527 3.41494 19.7858 3.71497 18.8649L5.46354 13.4983C5.59799 13.0856 5.45091 12.6333 5.09945 12.3787L0.524581 9.06405C-0.260426 8.49529 0.141905 7.25426 1.1113 7.25426H6.77206C7.20498 7.25426 7.58874 6.97568 7.72286 6.56406L9.47395 1.18966Z" fill="#E5E5E5"/>
</svg>
